# xmcd
#
# Track frame offsets: 
#        150
#        5088
#        17151
#        26801
#        36172
#        41583
#        53569
#        63755
#        71926
#        83083
#        91612
#        104380
#        115812
#
# Disc length: 1771 seconds
#
# Revision: 0
# Processed by: cddbd v1.5.2PL0 Copyright (c) Steve Scherf et al.
# Submitted via: ExactAudioCopy v1.0b3
#
DISCID=a106e90d
DTITLE=of Arrowe Hill - A Conspiracy Of Clocks
DYEAR=2014
DGENRE=Gothic Rock
TTITLE0=These Owls Of Mine
TTITLE1=& That's What Really Happened Blues
TTITLE2=Around The Corner
TTITLE3=She's Leaving? (No, She's Gone)
TTITLE4=You Know Who You Are
TTITLE5=While Friday Night Applies
TTITLE6=Meanwhile, At Mayhem Parva...
TTITLE7=Never Mind The Secrets
TTITLE8=Boy, Interrupted At His Music
TTITLE9=Whatever That Means
TTITLE10=A Midsummer Mummery
TTITLE11=Twilight's Last Dreaming
TTITLE12=Isn't It Grand, Boys
EXTD=
EXTT0=
EXTT1=
EXTT2=
EXTT3=
EXTT4=
EXTT5=
EXTT6=
EXTT7=
EXTT8=
EXTT9=
EXTT10=
EXTT11=
EXTT12=
PLAYORDER=
